<svg width="32" height="32" viewBox="0 0 32 32" fill="none" xmlns="http://www.w3.org/2000/svg">
<path d="M16 0C13.084 0 10.4 0.710667 7.94667 2.13333C5.52763 3.52127 3.52127 5.52763 2.13333 7.94667C0.710667 10.4 0 13.084 0 16C0 18.916 0.710667 21.6 2.13333 24.0533C3.52127 26.4724 5.52763 28.4787 7.94667 29.8667C10.4 31.2893 13.084 32 16 32C18.916 32 21.6 31.2893 24.0533 29.8667C26.4724 28.4787 28.4787 26.4724 29.8667 24.0533C31.2893 21.6 32 18.916 32 16C32 13.084 31.2893 10.4 29.8667 7.94667C28.4787 5.52763 26.4724 3.52127 24.0533 2.13333C21.6 0.710667 18.916 0 16 0ZM22.9333 20.3733L20.3733 22.9333L16 18.4533L11.6267 22.9333L9.06667 20.3733L13.5467 16L9.06667 11.6267L11.6267 9.06667L16 13.44L20.3733 9.06667L22.9333 11.6267L18.56 16L22.9333 20.3733Z" fill="#111111"/>
</svg>
