<svg width="225" height="35" viewBox="0 0 225 35" fill="none" xmlns="http://www.w3.org/2000/svg">
<path fill-rule="evenodd" clip-rule="evenodd" d="M2.53913 15.0096L11.4517 21.4398L8.04857 31.846C7.65691 33.0436 9.03731 34.0411 10.0626 33.3013L18.9717 26.8692L27.8843 33.3013C28.9061 34.0411 30.2883 33.0436 29.8949 31.846L26.4935 21.4398L35.4026 15.0096C36.4279 14.2697 35.9004 12.6561 34.6332 12.6561H23.6195L23.3305 11.7735L20.2164 2.25166C19.8247 1.05055 18.1188 1.05055 17.7271 2.25166L14.3239 12.6543H3.31028C2.04302 12.6543 1.51731 14.268 2.54087 15.0078L2.53913 15.0096Z" fill="#111111" stroke="#111111" stroke-width="2.61111"/>
<path fill-rule="evenodd" clip-rule="evenodd" d="M49.317 15.0096L58.2296 21.4398L54.8264 31.846C54.4347 33.0436 55.8151 34.0411 56.8404 33.3013L65.7496 26.8692L74.6621 33.3013C75.684 34.0411 77.0661 33.0436 76.6727 31.846L73.2713 21.4398L82.1804 15.0096C83.2057 14.2697 82.6783 12.6561 81.411 12.6561H70.3973L70.1084 11.7735L66.9942 2.25166C66.6025 1.05055 64.8966 1.05055 64.5049 2.25166L61.1018 12.6543H50.0881C48.8208 12.6543 48.2951 14.268 49.3187 15.0078L49.317 15.0096Z" fill="#111111" stroke="#111111" stroke-width="2.61111"/>
<path fill-rule="evenodd" clip-rule="evenodd" d="M96.0948 15.0096L105.007 21.4398L101.604 31.846C101.213 33.0436 102.593 34.0411 103.618 33.3013L112.527 26.8692L121.44 33.3013C122.462 34.0411 123.844 33.0436 123.451 31.846L120.049 21.4398L128.958 15.0096C129.984 14.2697 129.456 12.6561 128.189 12.6561H117.175L116.886 11.7735L113.772 2.25166C113.38 1.05055 111.674 1.05055 111.283 2.25166L107.88 12.6543H96.8659C95.5987 12.6543 95.073 14.268 96.0965 15.0078L96.0948 15.0096Z" fill="#111111" stroke="#111111" stroke-width="2.61111"/>
<path fill-rule="evenodd" clip-rule="evenodd" d="M142.872 15.0096L151.785 21.4398L148.382 31.846C147.99 33.0436 149.371 34.0411 150.396 33.3013L159.305 26.8692L168.218 33.3013C169.239 34.0411 170.622 33.0436 170.228 31.846L166.827 21.4398L175.736 15.0096C176.761 14.2697 176.234 12.6561 174.966 12.6561H163.953L163.664 11.7735L160.55 2.25166C160.158 1.05055 158.452 1.05055 158.06 2.25166L154.657 12.6543H143.644C142.376 12.6543 141.851 14.268 142.874 15.0078L142.872 15.0096Z" stroke="#111111" stroke-width="2.61111"/>
<path fill-rule="evenodd" clip-rule="evenodd" d="M189.65 15.0096L198.563 21.4398L195.16 31.846C194.768 33.0436 196.148 34.0411 197.174 33.3013L206.083 26.8692L214.995 33.3013C216.017 34.0411 217.399 33.0436 217.006 31.846L213.605 21.4398L222.514 15.0096C223.539 14.2697 223.012 12.6561 221.744 12.6561H210.731L210.442 11.7735L207.327 2.25166C206.936 1.05055 205.23 1.05055 204.838 2.25166L201.435 12.6543H190.421C189.154 12.6543 188.628 14.268 189.652 15.0078L189.65 15.0096Z" stroke="#111111" stroke-width="2.61111"/>
</svg>
