<svg width="360" height="60" viewBox="0 0 360 60" fill="none" xmlns="http://www.w3.org/2000/svg">
<rect width="360" height="60" fill="white"/>
<path fill-rule="evenodd" clip-rule="evenodd" d="M81.854 20L38.8132 38.2574C35.2297 39.7777 32.2152 40.5363 29.7859 40.5363C27.0525 40.5363 25.0613 39.5717 23.8385 37.6459C22.2527 35.1611 22.9459 31.1656 25.6662 26.9479C27.2814 24.4826 29.3347 22.22 31.3356 20.0556C30.8648 20.8207 26.7092 27.7358 31.2539 30.9923C32.153 31.6463 33.4314 31.9667 35.0041 31.9667C36.2662 31.9667 37.7146 31.7607 39.3069 31.3455L81.854 20Z" fill="#111111"/>
<path d="M229.75 39V36C229.75 35.0054 230.145 34.0516 230.848 33.3483C231.552 32.6451 232.505 32.25 233.5 32.25H242.5C243.495 32.25 244.448 32.6451 245.152 33.3483C245.855 34.0516 246.25 35.0054 246.25 36V39M238 21.75C237.005 21.75 236.052 22.1451 235.348 22.8483C234.645 23.5516 234.25 24.5054 234.25 25.5C234.25 26.4946 234.645 27.4484 235.348 28.1517C236.052 28.8549 237.005 29.25 238 29.25C238.995 29.25 239.948 28.8549 240.652 28.1517C241.355 27.4484 241.75 26.4946 241.75 25.5C241.75 24.5054 241.355 23.5516 240.652 22.8483C239.948 22.1451 238.995 21.75 238 21.75Z" stroke="#111111" stroke-width="1.5"/>
<path d="M274.25 26.25V24C274.25 23.4033 274.487 22.831 274.909 22.409C275.331 21.9871 275.903 21.75 276.5 21.75H279.5C280.097 21.75 280.669 21.9871 281.091 22.409C281.513 22.831 281.75 23.4033 281.75 24C281.75 24.5967 281.513 25.169 281.091 25.591C280.669 26.0129 280.097 26.25 279.5 26.25H269.75V34.5C269.75 35.4946 270.145 36.4484 270.848 37.1517C271.552 37.8549 272.505 38.25 273.5 38.25H282.5C283.495 38.25 284.448 37.8549 285.152 37.1517C285.855 36.4484 286.25 35.4946 286.25 34.5V26.25H283.5" stroke="#111111" stroke-width="1.5"/>
<path d="M276.122 29.369C276.338 29.369 276.548 29.351 276.752 29.315C276.956 29.279 277.139 29.219 277.301 29.135C277.469 29.051 277.61 28.943 277.724 28.811C277.844 28.679 277.922 28.517 277.958 28.325H278.795V34.625H277.67V30.179H276.122V29.369Z" fill="#111111"/>
<a href="https://www.figma.com/design/XhuKPULNfD39ouLzTJMIAB/%EB%82%98%EC%9D%B4%ED%82%A4-(Copy)?node-id=8-902">
<rect fill="black" fill-opacity="0" x="0.154637" y="2.3805" width="5.004" height="10.989"/>
</a>
<path d="M327 23.25H309M327 30H309M327 36.75H309" stroke="#111111" stroke-width="1.5"/>
</svg>
