<svg width="36" height="36" viewBox="0 0 36 36" fill="none" xmlns="http://www.w3.org/2000/svg">
<path d="M14.25 14.25V12C14.25 11.4033 14.4871 10.831 14.909 10.409C15.331 9.98705 15.9033 9.75 16.5 9.75H19.5C20.0967 9.75 20.669 9.98705 21.091 10.409C21.5129 10.831 21.75 11.4033 21.75 12C21.75 12.5967 21.5129 13.169 21.091 13.591C20.669 14.0129 20.0967 14.25 19.5 14.25H9.75V22.5C9.75 23.4946 10.1451 24.4484 10.8483 25.1517C11.5516 25.8549 12.5054 26.25 13.5 26.25H22.5C23.4946 26.25 24.4484 25.8549 25.1517 25.1517C25.8549 24.4484 26.25 23.4946 26.25 22.5V14.25H23.5" stroke="#111111" stroke-width="1.5"/>
</svg>
