<svg width="25" height="24" viewBox="0 0 25 24" fill="none" xmlns="http://www.w3.org/2000/svg">
<path d="M17.594 3.75002C18.918 3.75002 20.162 4.26602 21.098 5.20102C22.0262 6.13093 22.5475 7.39113 22.5475 8.70502C22.5475 10.0189 22.0262 11.2791 21.098 12.209L12.8 20.508L4.50101 12.209C3.57312 11.2791 3.052 10.0192 3.052 8.70552C3.052 7.39188 3.57312 6.13189 4.50101 5.20202C4.96004 4.74032 5.50609 4.37425 6.10756 4.12501C6.70902 3.87578 7.35395 3.74832 8.00501 3.75002C9.32901 3.75002 10.573 4.26602 11.509 5.20102L12.269 5.96102L12.8 6.49202L13.33 5.96102L14.09 5.20102C14.5492 4.73963 15.0953 4.37384 15.6968 4.12478C16.2982 3.87573 16.943 3.74835 17.594 3.75002Z" stroke="#111111" stroke-width="1.5"/>
</svg>
