<svg width="13" height="28" viewBox="0 0 13 28" fill="none" xmlns="http://www.w3.org/2000/svg">
<rect width="12" height="28" transform="translate(0.369141)" fill="white"/>
<g clip-path="url(#clip0_32_1206)">
<path d="M6.36914 8C5.27581 8 4.26914 8.26667 3.34914 8.8C2.42914 9.33333 1.70247 10.06 1.16914 10.98C0.635807 11.9 0.369141 12.9067 0.369141 14C0.369141 15.0933 0.635807 16.1 1.16914 17.02C1.70247 17.94 2.42914 18.6667 3.34914 19.2C4.26914 19.7333 5.27581 20 6.36914 20C7.46247 20 8.46914 19.7333 9.38914 19.2C10.3091 18.6667 11.0358 17.94 11.5691 17.02C12.1025 16.1 12.3691 15.0933 12.3691 14C12.3691 12.9067 12.1025 11.9 11.5691 10.98C11.0358 10.06 10.3091 9.33333 9.38914 8.8C8.46914 8.26667 7.46247 8 6.36914 8ZM6.48914 17.44C6.24914 17.44 6.04247 17.36 5.86914 17.2C5.69581 17.04 5.60914 16.84 5.60914 16.6C5.60914 16.36 5.69581 16.16 5.86914 16C6.04247 15.84 6.24247 15.76 6.46914 15.76C6.69581 15.76 6.89581 15.84 7.06914 16C7.24247 16.16 7.32914 16.36 7.32914 16.6C7.32914 16.84 7.24247 17.04 7.06914 17.2C6.89581 17.36 6.70247 17.44 6.48914 17.44ZM4.92914 10.68C5.30247 10.44 5.75581 10.32 6.28914 10.32C6.98247 10.32 7.56247 10.4867 8.02914 10.82C8.49581 11.1533 8.72914 11.6533 8.72914 12.32C8.72914 12.72 8.62247 13.0533 8.40914 13.32C8.30247 13.48 8.07581 13.6933 7.72914 13.96L7.40914 14.24C7.24914 14.3733 7.12914 14.5333 7.04914 14.72C7.02247 14.8267 7.00914 15.0133 7.00914 15.28H5.72914C5.75581 14.7467 5.80914 14.38 5.88914 14.18C5.96914 13.98 6.18247 13.7467 6.52914 13.48L6.84914 13.2C6.95581 13.12 7.04914 13.04 7.12914 12.96C7.23581 12.7733 7.28914 12.5733 7.28914 12.36C7.28914 12.1467 7.22247 11.94 7.08914 11.74C6.95581 11.54 6.70914 11.44 6.34914 11.44C5.98914 11.44 5.73581 11.56 5.58914 11.8C5.44247 12.04 5.36914 12.2933 5.36914 12.56H4.00914C4.06247 11.68 4.36914 11.0533 4.92914 10.68Z" fill="black"/>
</g>
<defs>
<clipPath id="clip0_32_1206">
<rect width="12" height="16" fill="white" transform="matrix(1 0 0 -1 0.369141 22)"/>
</clipPath>
</defs>
</svg>
