<svg width="36" height="36" viewBox="0 0 36 36" fill="none" xmlns="http://www.w3.org/2000/svg">
<path d="M9.75 27V24C9.75 23.0054 10.1451 22.0516 10.8483 21.3483C11.5516 20.6451 12.5054 20.25 13.5 20.25H22.5C23.4946 20.25 24.4484 20.6451 25.1517 21.3483C25.8549 22.0516 26.25 23.0054 26.25 24V27M18 9.75C17.0054 9.75 16.0516 10.1451 15.3483 10.8483C14.6451 11.5516 14.25 12.5054 14.25 13.5C14.25 14.4946 14.6451 15.4484 15.3483 16.1517C16.0516 16.8549 17.0054 17.25 18 17.25C18.9946 17.25 19.9484 16.8549 20.6517 16.1517C21.3549 15.4484 21.75 14.4946 21.75 13.5C21.75 12.5054 21.3549 11.5516 20.6517 10.8483C19.9484 10.1451 18.9946 9.75 18 9.75Z" stroke="#111111" stroke-width="1.5"/>
</svg>
