<svg width="24" height="25" viewBox="0 0 24 25" fill="none" xmlns="http://www.w3.org/2000/svg">
<path d="M21 8.75H10M4.75 8.75H3" stroke="#111111" stroke-width="1.5"/>
<path d="M7.5 6.5C7.20453 6.5 6.91194 6.5582 6.63896 6.67127C6.36598 6.78434 6.11794 6.95008 5.90901 7.15901C5.70008 7.36794 5.53434 7.61598 5.42127 7.88896C5.3082 8.16194 5.25 8.45453 5.25 8.75C5.25 9.04547 5.3082 9.33806 5.42127 9.61104C5.53434 9.88402 5.70008 10.1321 5.90901 10.341C6.11794 10.5499 6.36598 10.7157 6.63896 10.8287C6.91194 10.9418 7.20453 11 7.5 11C8.09674 11 8.66903 10.7629 9.09099 10.341C9.51295 9.91903 9.75 9.34674 9.75 8.75C9.75 8.15326 9.51295 7.58097 9.09099 7.15901C8.66903 6.73705 8.09674 6.5 7.5 6.5Z" stroke="#111111" stroke-width="1.5"/>
<path d="M3 16.25H13.75M18.75 16.25H21" stroke="#111111" stroke-width="1.5"/>
<path d="M16.5 14C15.9033 14 15.331 14.2371 14.909 14.659C14.4871 15.081 14.25 15.6533 14.25 16.25C14.25 16.8467 14.4871 17.419 14.909 17.841C15.331 18.2629 15.9033 18.5 16.5 18.5C17.0967 18.5 17.669 18.2629 18.091 17.841C18.5129 17.419 18.75 16.8467 18.75 16.25C18.75 15.6533 18.5129 15.081 18.091 14.659C17.669 14.2371 17.0967 14 16.5 14Z" stroke="#111111" stroke-width="1.5"/>
</svg>
